<svg version="1.1" xmlns="http://www.w3.org/2000/svg" viewBox="0 0 1988.9999999999995 1442.909047312551" width="1988.9999999999995" height="1442.909047312551">
  <!-- svg-source:excalidraw -->
  
  <defs>
    <style>
      @font-face {
        font-family: "Virgil";
        src: url("https://unpkg.com/@hackerrank/excalidraw@0.12.7/dist//dist/excalidraw-assets/Virgil.woff2");
      }
      @font-face {
        font-family: "Cascadia";
        src: url("https://unpkg.com/@hackerrank/excalidraw@0.12.7/dist//dist/excalidraw-assets/Cascadia.woff2");
      }
    </style>
  </defs>
  <rect x="0" y="0" width="1988.9999999999995" height="1442.909047312551" fill="#ffffff"></rect><g stroke-linecap="round" transform="translate(602.7499999999999 37.60714285714283) rotate(0 191.5 99)"><path d="M192.34 0.49 C261.65 36.64, 333.08 73.96, 382.2 101.08 M192.52 -0.5 C238.09 22.71, 283.8 46.21, 383.81 100.85 M381.65 100.35 C327.24 128.22, 269.67 157.51, 191.41 197.14 M383.67 100 C312.55 136.6, 239.51 173.56, 192.72 197.23 M193.62 196.34 C152.63 180.46, 111.66 159.71, -1.46 101.19 M192.17 198.68 C122.68 164.34, 54.76 128.51, 0.26 100.09 M-1.3 98.91 C66.36 62.55, 135.62 28.15, 190.82 0.13 M-0.01 100.46 C67.81 64.47, 137.57 28.15, 192.52 0.32" stroke="#000000" stroke-width="1" fill="none"></path></g><g transform="translate(607.7499999999999 101.60714285714283) rotate(0 186.5 34.5)"><text x="186.5" y="17" font-family="Virgil, Segoe UI Emoji" font-size="20px" fill="#000000" text-anchor="middle" style="white-space: pre;" direction="ltr">IUserInterface</text><text x="186.5" y="40" font-family="Virgil, Segoe UI Emoji" font-size="20px" fill="#000000" text-anchor="middle" style="white-space: pre;" direction="ltr"></text><text x="186.5" y="63" font-family="Virgil, Segoe UI Emoji" font-size="20px" fill="#000000" text-anchor="middle" style="white-space: pre;" direction="ltr">+ getUserActions ( )</text></g><g stroke-linecap="round" transform="translate(14.503663003662837 10) rotate(0 170 120)"><path d="M0.79 -0.07 C119.35 -0.69, 237.86 -1.67, 339.15 -1.01 M0.43 -0.34 C113.67 1.19, 227.74 0.67, 339.9 0.26 M340.68 0.78 C340.03 56.62, 340.77 111.83, 339.23 241.01 M339.19 0.21 C338.27 52.48, 338.79 103.37, 340.16 239.36 M341.08 240.59 C241.59 238.64, 142.4 237.59, -0.31 239.13 M340.42 240.15 C241.81 239.26, 143.32 238.19, 0.27 239.96 M0.79 241 C-1.63 147.43, -0.64 56.28, -0.56 -0.04 M-0.67 240.44 C-1.27 160.18, -2.1 79.11, 0.23 0.52" stroke="#000000" stroke-width="1" fill="none"></path></g><g transform="translate(19.503663003662837 15) rotate(0 165 115)"><text x="165" y="17" font-family="Virgil, Segoe UI Emoji" font-size="20px" fill="#000000" text-anchor="middle" style="white-space: pre;" direction="ltr">CDroneSchool</text><text x="165" y="40" font-family="Virgil, Segoe UI Emoji" font-size="20px" fill="#000000" text-anchor="middle" style="white-space: pre;" direction="ltr"></text><text x="165" y="63" font-family="Virgil, Segoe UI Emoji" font-size="20px" fill="#000000" text-anchor="middle" style="white-space: pre;" direction="ltr">+ setupDrone ( drone )</text><text x="165" y="86" font-family="Virgil, Segoe UI Emoji" font-size="20px" fill="#000000" text-anchor="middle" style="white-space: pre;" direction="ltr">+ setupStudent ( student )</text><text x="165" y="109" font-family="Virgil, Segoe UI Emoji" font-size="20px" fill="#000000" text-anchor="middle" style="white-space: pre;" direction="ltr">+ setupSupervisor ( supervisor )</text><text x="165" y="132" font-family="Virgil, Segoe UI Emoji" font-size="20px" fill="#000000" text-anchor="middle" style="white-space: pre;" direction="ltr">+ addLecture ( lecture )</text><text x="165" y="155" font-family="Virgil, Segoe UI Emoji" font-size="20px" fill="#000000" text-anchor="middle" style="white-space: pre;" direction="ltr">+ getItemsNear ( pos, radius )</text><text x="165" y="178" font-family="Virgil, Segoe UI Emoji" font-size="20px" fill="#000000" text-anchor="middle" style="white-space: pre;" direction="ltr">+ startLesson ( )</text><text x="165" y="201" font-family="Virgil, Segoe UI Emoji" font-size="20px" fill="#000000" text-anchor="middle" style="white-space: pre;" direction="ltr">+ update ( )</text><text x="165" y="224" font-family="Virgil, Segoe UI Emoji" font-size="20px" fill="#000000" text-anchor="middle" style="white-space: pre;" direction="ltr"></text></g><g stroke-linecap="round" transform="translate(16.785714285714107 457.75) rotate(0 163.5 208)"><path d="M-0.11 0.75 C108.78 0.07, 214.85 1.16, 326.17 0.52 M0.46 0.44 C86.83 -1.64, 174.36 -1.64, 326.59 0.29 M327.68 0.22 C327.83 120.59, 327.88 244.1, 327.11 416.37 M326.78 -0.45 C326.43 148.98, 327.46 298.06, 327.32 416.46 M326.62 416.33 C204.89 414.34, 81.64 416.53, 0.7 416.39 M326.82 415.59 C218.74 417.27, 109.93 417.49, 0.22 415.64 M-0.02 416.86 C-1.02 257.62, -0.16 97.35, -0.73 -0.98 M-0.38 416.29 C0.42 255.85, 0.51 95.8, -0.1 -0.26" stroke="#000000" stroke-width="1" fill="none"></path></g><g transform="translate(21.785714285714107 493.25) rotate(0 158.5 172.5)"><text x="158.5" y="17" font-family="Virgil, Segoe UI Emoji" font-size="20px" fill="#000000" text-anchor="middle" style="white-space: pre;" direction="ltr">CLesson</text><text x="158.5" y="40" font-family="Virgil, Segoe UI Emoji" font-size="20px" fill="#000000" text-anchor="middle" style="white-space: pre;" direction="ltr"></text><text x="158.5" y="63" font-family="Virgil, Segoe UI Emoji" font-size="20px" fill="#000000" text-anchor="middle" style="white-space: pre;" direction="ltr">- list&lt;ICommand*&gt; commands</text><text x="158.5" y="86" font-family="Virgil, Segoe UI Emoji" font-size="20px" fill="#000000" text-anchor="middle" style="white-space: pre;" direction="ltr">- list&lt;IItem*&gt; items</text><text x="158.5" y="109" font-family="Virgil, Segoe UI Emoji" font-size="20px" fill="#000000" text-anchor="middle" style="white-space: pre;" direction="ltr"></text><text x="158.5" y="132" font-family="Virgil, Segoe UI Emoji" font-size="20px" fill="#000000" text-anchor="middle" style="white-space: pre;" direction="ltr">+ addCommand ( command )</text><text x="158.5" y="155" font-family="Virgil, Segoe UI Emoji" font-size="20px" fill="#000000" text-anchor="middle" style="white-space: pre;" direction="ltr">+ addItem ( item )</text><text x="158.5" y="178" font-family="Virgil, Segoe UI Emoji" font-size="20px" fill="#000000" text-anchor="middle" style="white-space: pre;" direction="ltr">+ setStartLocation ( pos )</text><text x="158.5" y="201" font-family="Virgil, Segoe UI Emoji" font-size="20px" fill="#000000" text-anchor="middle" style="white-space: pre;" direction="ltr"></text><text x="158.5" y="224" font-family="Virgil, Segoe UI Emoji" font-size="20px" fill="#000000" text-anchor="middle" style="white-space: pre;" direction="ltr">+ start ( user, drone )</text><text x="158.5" y="247" font-family="Virgil, Segoe UI Emoji" font-size="20px" fill="#000000" text-anchor="middle" style="white-space: pre;" direction="ltr">+ update ( )</text><text x="158.5" y="270" font-family="Virgil, Segoe UI Emoji" font-size="20px" fill="#000000" text-anchor="middle" style="white-space: pre;" direction="ltr">+ isComplete ( )</text><text x="158.5" y="293" font-family="Virgil, Segoe UI Emoji" font-size="20px" fill="#000000" text-anchor="middle" style="white-space: pre;" direction="ltr">+ rewind ( )</text><text x="158.5" y="316" font-family="Virgil, Segoe UI Emoji" font-size="20px" fill="#000000" text-anchor="middle" style="white-space: pre;" direction="ltr"></text><text x="158.5" y="339" font-family="Virgil, Segoe UI Emoji" font-size="20px" fill="#000000" text-anchor="middle" style="white-space: pre;" direction="ltr">+ getItems ( )</text></g><g stroke-linecap="round" transform="translate(1237.7617885044642 866.9286295572916) rotate(0 198.5 124.49999999999994)"><path d="M198.86 -0.49 C254.85 36.67, 313.67 70.87, 396.18 124.71 M198.83 0.65 C249.25 30.63, 297.57 61.78, 397.08 125.56 M395.75 125.13 C334.5 162.54, 272.04 202.35, 198.86 249.97 M397.02 125.12 C322.79 168.86, 249.02 214.79, 199.09 248.72 M198.16 249.22 C122.75 200.01, 44.45 151.29, -0.86 126.5 M199.1 249.12 C135.09 210.09, 72.09 170.01, 0.08 124.78 M0.42 125.73 C51.34 94.72, 105.25 61.87, 199.46 -0.67 M-0.7 124.83 C73.93 78.34, 148.82 31.32, 198.74 0.36" stroke="#000000" stroke-width="1" fill="none"></path></g><g transform="translate(1242.7617885044642 910.9286295572916) rotate(0 193.5 80.5)"><text x="193.5" y="17" font-family="Virgil, Segoe UI Emoji" font-size="20px" fill="#000000" text-anchor="middle" style="white-space: pre;" direction="ltr">ICommand</text><text x="193.5" y="40" font-family="Virgil, Segoe UI Emoji" font-size="20px" fill="#000000" text-anchor="middle" style="white-space: pre;" direction="ltr"></text><text x="193.5" y="63" font-family="Virgil, Segoe UI Emoji" font-size="20px" fill="#000000" text-anchor="middle" style="white-space: pre;" direction="ltr">+ virtual isDone ( drone )</text><text x="193.5" y="86" font-family="Virgil, Segoe UI Emoji" font-size="20px" fill="#000000" text-anchor="middle" style="white-space: pre;" direction="ltr">+ letUserWorkOnIt ( user )</text><text x="193.5" y="109" font-family="Virgil, Segoe UI Emoji" font-size="20px" fill="#000000" text-anchor="middle" style="white-space: pre;" direction="ltr">+ virtual workOnIt ( remote )</text><text x="193.5" y="132" font-family="Virgil, Segoe UI Emoji" font-size="20px" fill="#000000" text-anchor="middle" style="white-space: pre;" direction="ltr">+ virtual undo ( )</text><text x="193.5" y="155" font-family="Virgil, Segoe UI Emoji" font-size="20px" fill="#000000" text-anchor="middle" style="white-space: pre;" direction="ltr"></text></g><g stroke-linecap="round" transform="translate(1014.7617885044641 1294.761962890625) rotate(0 131.5 68.5)"><path d="M1.52 -0.42 C86.92 0.21, 176.17 -1.57, 261.63 -0.31 M0.67 0.28 C98.49 0.16, 195.98 0.71, 263.17 -0.04 M261.22 1.23 C260.45 34.79, 260.5 72.34, 261.7 138.62 M263.73 -0.29 C262.59 38.56, 262.13 76.71, 262.57 137.12 M263.6 135.55 C193.29 135.63, 125.26 134.99, -1.5 135.76 M262.88 136.56 C208.89 137.42, 154.07 137.34, 0.79 136.89 M1.03 137.67 C-0.3 92.02, 0.43 48.4, -1.48 1.31 M0.25 137.37 C1.74 105.57, 0.37 74.38, -0.73 -0.73" stroke="#000000" stroke-width="1" fill="none"></path></g><g transform="translate(1019.7617885044641 1351.761962890625) rotate(0 126.5 11.5)"><text x="126.5" y="17" font-family="Virgil, Segoe UI Emoji" font-size="20px" fill="#000000" text-anchor="middle" style="white-space: pre;" direction="ltr">CReachDestination</text></g><g stroke-linecap="round" transform="translate(1326.2617885044642 1293.261962890625) rotate(0 131.5 68.5)"><path d="M0.82 0.53 C85.73 -1.35, 172.66 -0.27, 261.82 1.04 M0.2 0.29 C61.4 -1.3, 121.04 -0.94, 262.42 -0.58 M262.2 1.61 C262.48 26.25, 263.69 57.52, 264.15 135.48 M263.23 -0.86 C261.32 39.51, 262.6 77.98, 262.65 136.64 M263.06 138.11 C203.12 136.63, 140.07 135.17, 0.37 135.5 M262.91 137.27 C166.27 137.55, 68.1 137.36, 0.32 137.33 M-0.76 135.8 C-1.36 97.85, -0.18 61.12, 0.23 1.18 M-0.43 136.49 C-0.74 100.64, -1.66 63.01, 0.24 -0.71" stroke="#000000" stroke-width="1" fill="none"></path></g><g transform="translate(1331.2617885044642 1350.261962890625) rotate(0 126.5 11.5)"><text x="126.5" y="17" font-family="Virgil, Segoe UI Emoji" font-size="20px" fill="#000000" text-anchor="middle" style="white-space: pre;" direction="ltr">CPickItem</text></g><g stroke-linecap="round" transform="translate(1639.2617885044642 1293.261962890625) rotate(0 131.5 68.5)"><path d="M-0.51 -0.78 C53.78 1.63, 106.88 2.2, 262.54 1.09 M0.15 0.64 C102.07 1.34, 205.48 0.51, 262.29 -0.64 M263.47 0.34 C261.15 31.34, 261.93 65.6, 263.96 137.72 M263.46 0.89 C262.06 32.33, 262.85 65.6, 262.21 136.33 M263.18 137.77 C208.13 138.8, 154.31 139.64, -0.96 138.41 M262.61 137.2 C199.2 136.27, 135.77 136.21, -0.12 137.74 M1.52 138.31 C-1.02 83.78, 1.78 33.73, -0.59 1.73 M0.66 136.44 C1.55 88.19, -0.02 36.74, 0.04 0.4" stroke="#000000" stroke-width="1" fill="none"></path></g><g transform="translate(1644.2617885044642 1350.261962890625) rotate(0 126.5 11.5)"><text x="126.5" y="17" font-family="Virgil, Segoe UI Emoji" font-size="20px" fill="#000000" text-anchor="middle" style="white-space: pre;" direction="ltr">CDropItem</text></g><g stroke-linecap="round"><g transform="translate(1141.885744585718 1270.151497774346) rotate(0 71.64663916036318 -110.31866201937623)"><path d="M0.05 0.48 C24.34 -35.91, 120.42 -182.52, 144.67 -219.5 M-1.38 -0.32 C22.83 -36.93, 119.26 -184.41, 143.7 -221.11" stroke="#000000" stroke-width="1" fill="none"></path></g><g transform="translate(1141.885744585718 1270.151497774346) rotate(0 71.64663916036318 -110.31866201937623)"><path d="M137.55 -192.02 C140.13 -196.74, 138.47 -205.67, 144.42 -222.93 M136.37 -191.2 C138.78 -200.96, 141.16 -210.29, 144.27 -221.31" stroke="#000000" stroke-width="1" fill="none"></path></g><g transform="translate(1141.885744585718 1270.151497774346) rotate(0 71.64663916036318 -110.31866201937623)"><path d="M120.41 -203.31 C126.54 -205.63, 128.54 -212.15, 144.42 -222.93 M119.23 -202.49 C126.97 -208.76, 134.77 -214.52, 144.27 -221.31" stroke="#000000" stroke-width="1" fill="none"></path></g></g><g stroke-linecap="round"><g transform="translate(1446.5693934303517 1266.1355389741598) rotate(0 -0.8747443338166931 -64.50269640760541)"><path d="M0.68 -0.24 C0.33 -21.42, -2.22 -105.62, -2.43 -126.89 M-0.42 -1.41 C-0.4 -22.97, -0.24 -107.87, -0.34 -128.77" stroke="#000000" stroke-width="1" fill="none"></path></g><g transform="translate(1446.5693934303517 1266.1355389741598) rotate(0 -0.8747443338166931 -64.50269640760541)"><path d="M9.55 -102.56 C7.85 -107.2, 3.4 -116.08, -2.21 -129.89 M9.73 -100.12 C8.38 -105.88, 5.28 -112.45, -0.96 -128.05" stroke="#000000" stroke-width="1" fill="none"></path></g><g transform="translate(1446.5693934303517 1266.1355389741598) rotate(0 -0.8747443338166931 -64.50269640760541)"><path d="M-10.97 -102.54 C-7.03 -107.3, -5.84 -116.18, -2.21 -129.89 M-10.79 -100.1 C-7.64 -105.97, -6.24 -112.55, -0.96 -128.05" stroke="#000000" stroke-width="1" fill="none"></path></g></g><g stroke-linecap="round"><g transform="translate(1783.2094619869358 1264.2874174360795) rotate(0 -80.33014192004964 -121.91642666574575)"><path d="M1.11 1.15 C-26.04 -39.63, -134.66 -203.96, -161.77 -244.98 M0.24 0.71 C-26.64 -39.86, -132.33 -202.85, -159.47 -243.6" stroke="#000000" stroke-width="1" fill="none"></path></g><g transform="translate(1783.2094619869358 1264.2874174360795) rotate(0 -80.33014192004964 -121.91642666574575)"><path d="M-133.51 -226.96 C-145.44 -233.51, -154.97 -240.26, -158.23 -243.5 M-135.96 -225.65 C-141.06 -230.08, -147.52 -235.5, -159.54 -242.81" stroke="#000000" stroke-width="1" fill="none"></path></g><g transform="translate(1783.2094619869358 1264.2874174360795) rotate(0 -80.33014192004964 -121.91642666574575)"><path d="M-150.66 -215.7 C-155.74 -226.88, -158.45 -238.12, -158.23 -243.5 M-153.12 -214.39 C-154.05 -221.52, -156.29 -229.71, -159.54 -242.81" stroke="#000000" stroke-width="1" fill="none"></path></g></g><g stroke-linecap="round" transform="translate(612.4563831147692 1291.7618756975448) rotate(0 131.5 68.5)"><path d="M-1.05 -1.27 C77.27 0.14, 156.42 1.36, 261.87 -0.54 M-0.05 -0.77 C58.79 0.19, 117.9 1.58, 263.25 0.27 M263.6 0.23 C262.77 51, 261.46 101.05, 263.99 136.89 M263.98 -0.88 C262.97 45.67, 263.4 91.41, 262.24 137.03 M262.92 135.85 C169.45 137.86, 78.19 138.4, 0.7 135.99 M263.18 137.01 C188.83 136.55, 113.18 137.64, -0.18 137.29 M1.71 136.67 C-1.53 88.43, -0.92 42.83, 0.88 0.02 M-0.85 137.3 C0.9 106.36, -0.22 76.76, 0.65 0.78" stroke="#000000" stroke-width="1" fill="none"></path></g><g transform="translate(617.4563831147692 1348.7618756975448) rotate(0 126.5 11.5)"><text x="126.5" y="17" font-family="Virgil, Segoe UI Emoji" font-size="20px" fill="#000000" text-anchor="middle" style="white-space: pre;" direction="ltr">CStaticItem</text></g><g stroke-linecap="round" transform="translate(556.0902554070278 960.6254611985507) rotate(0 190.00000000000006 105)"><path d="M190.14 1.29 C236.17 22.3, 280.26 49.27, 380.12 104.86 M190.7 -0.21 C245.85 31.08, 299.33 60.7, 380.03 106.39 M381.27 107.19 C328.63 135.93, 277.15 163.22, 190.85 211.68 M380.73 105.96 C307.72 146.61, 236.31 186.73, 190.41 210.3 M191.47 209.72 C119.95 170.58, 44.33 131.61, 0.93 104.87 M191.86 209.72 C136.91 178.84, 83.78 149.92, -0.25 105.65 M0.37 105.63 C68.56 68.55, 140.13 28.33, 190.64 0.88 M0.68 106.09 C39.7 83.55, 79.31 61.46, 190.64 -0.69" stroke="#000000" stroke-width="1" fill="none"></path></g><g transform="translate(561.0902554070278 996.6254611985507) rotate(0 185.00000000000006 69)"><text x="185" y="17" font-family="Virgil, Segoe UI Emoji" font-size="20px" fill="#000000" text-anchor="middle" style="white-space: pre;" direction="ltr">IItem</text><text x="185" y="40" font-family="Virgil, Segoe UI Emoji" font-size="20px" fill="#000000" text-anchor="middle" style="white-space: pre;" direction="ltr"></text><text x="185" y="63" font-family="Virgil, Segoe UI Emoji" font-size="20px" fill="#000000" text-anchor="middle" style="white-space: pre;" direction="ltr">+ get/set textureName ()</text><text x="185" y="86" font-family="Virgil, Segoe UI Emoji" font-size="20px" fill="#000000" text-anchor="middle" style="white-space: pre;" direction="ltr">+ get isPickable ()</text><text x="185" y="109" font-family="Virgil, Segoe UI Emoji" font-size="20px" fill="#000000" text-anchor="middle" style="white-space: pre;" direction="ltr">width, height, angle</text><text x="185" y="132" font-family="Virgil, Segoe UI Emoji" font-size="20px" fill="#000000" text-anchor="middle" style="white-space: pre;" direction="ltr"></text></g><g stroke-linecap="round"><g transform="translate(749.7596715361175 1269.7558876735927) rotate(0 -0.3072434450335777 -37.894386387680015)"><path d="M-0.11 -0.57 C-0.21 -13.1, -1.3 -63.09, -1.31 -75.73 M-1.63 1.75 C-1.28 -11.09, 0.85 -64.72, 1.01 -77.54" stroke="#000000" stroke-width="1" fill="none"></path></g><g transform="translate(749.7596715361175 1269.7558876735927) rotate(0 -0.3072434450335777 -37.894386387680015)"><path d="M9.53 -50.32 C9.32 -55.2, 5.92 -63.38, 2.91 -78.73 M10.92 -49.34 C7.5 -57.42, 5.77 -65.05, 1.06 -76.55" stroke="#000000" stroke-width="1" fill="none"></path></g><g transform="translate(749.7596715361175 1269.7558876735927) rotate(0 -0.3072434450335777 -37.894386387680015)"><path d="M-10.98 -50.9 C-6.26 -55.63, -4.74 -63.66, 2.91 -78.73 M-9.59 -49.92 C-7.06 -58.02, -2.85 -65.5, 1.06 -76.55" stroke="#000000" stroke-width="1" fill="none"></path></g></g><g stroke-linecap="round" transform="translate(603.7023954845607 456.11501639229925) rotate(0 189.5 173.5)"><path d="M0.95 -0.13 C96.22 1.29, 195.07 0.68, 379.5 -0.04 M-0.06 -0.01 C87.38 1.96, 175.28 1.25, 379.19 0.25 M378.49 0.59 C379.95 102.18, 380.68 203.11, 378.85 346.08 M379.47 0.31 C379.24 73.96, 379.2 148.85, 379.29 346.69 M378.58 347.22 C300.64 348.6, 222.17 349.48, -0.6 348.14 M378.8 347.57 C251.18 344.75, 123.05 345.17, 0.02 347.09 M-0.58 346.56 C-0.5 251.25, 0.25 153.19, -0.89 0.37 M-0.64 347.26 C0.09 261.88, -0.22 177.61, -0.35 0.51" stroke="#000000" stroke-width="1" fill="none"></path></g><g transform="translate(608.7023954845607 491.61501639229925) rotate(0 184.5 138)"><text x="184.5" y="17" font-family="Virgil, Segoe UI Emoji" font-size="20px" fill="#000000" text-anchor="middle" style="white-space: pre;" direction="ltr">UserInterface_SDL</text><text x="184.5" y="40" font-family="Virgil, Segoe UI Emoji" font-size="20px" fill="#000000" text-anchor="middle" style="white-space: pre;" direction="ltr"></text><text x="184.5" y="63" font-family="Virgil, Segoe UI Emoji" font-size="20px" fill="#000000" text-anchor="middle" style="white-space: pre;" direction="ltr">- droneSchoolRef</text><text x="184.5" y="86" font-family="Virgil, Segoe UI Emoji" font-size="20px" fill="#000000" text-anchor="middle" style="white-space: pre;" direction="ltr">- map&lt;string, texture&gt; textures</text><text x="184.5" y="109" font-family="Virgil, Segoe UI Emoji" font-size="20px" fill="#000000" text-anchor="middle" style="white-space: pre;" direction="ltr"></text><text x="184.5" y="132" font-family="Virgil, Segoe UI Emoji" font-size="20px" fill="#000000" text-anchor="middle" style="white-space: pre;" direction="ltr">+ handleEvents ( )</text><text x="184.5" y="155" font-family="Virgil, Segoe UI Emoji" font-size="20px" fill="#000000" text-anchor="middle" style="white-space: pre;" direction="ltr">+ update ( )</text><text x="184.5" y="178" font-family="Virgil, Segoe UI Emoji" font-size="20px" fill="#000000" text-anchor="middle" style="white-space: pre;" direction="ltr">+ renderFrame ( )</text><text x="184.5" y="201" font-family="Virgil, Segoe UI Emoji" font-size="20px" fill="#000000" text-anchor="middle" style="white-space: pre;" direction="ltr">+ animationLoop ( )</text><text x="184.5" y="224" font-family="Virgil, Segoe UI Emoji" font-size="20px" fill="#000000" text-anchor="middle" style="white-space: pre;" direction="ltr">+ registerTexture ( name, path )</text><text x="184.5" y="247" font-family="Virgil, Segoe UI Emoji" font-size="20px" fill="#000000" text-anchor="middle" style="white-space: pre;" direction="ltr"></text><text x="184.5" y="270" font-family="Virgil, Segoe UI Emoji" font-size="20px" fill="#000000" text-anchor="middle" style="white-space: pre;" direction="ltr">- renderItem ( item )</text></g><g stroke-linecap="round"><g transform="translate(798.9323952774015 424.1150163922992) rotate(0 -0.18155202084403754 -93.18566185090081)"><path d="M-0.3 1.13 C-0.78 -30.01, -2.05 -156.03, -2.1 -187.5 M1.74 0.68 C1.58 -30.22, 0.61 -154.86, 0.13 -186.07" stroke="#000000" stroke-width="1" fill="none"></path></g><g transform="translate(798.9323952774015 424.1150163922992) rotate(0 -0.18155202084403754 -93.18566185090081)"><path d="M12.58 -159.5 C6.69 -167.25, 2.53 -177.37, 1.26 -184.66 M10.33 -157.88 C7.32 -167.62, 4.43 -175.88, 0.13 -186.12" stroke="#000000" stroke-width="1" fill="none"></path></g><g transform="translate(798.9323952774015 424.1150163922992) rotate(0 -0.18155202084403754 -93.18566185090081)"><path d="M-7.94 -159.28 C-6.41 -167.06, -3.15 -177.26, 1.26 -184.66 M-10.19 -157.65 C-6.66 -167.38, -3.01 -175.71, 0.13 -186.12" stroke="#000000" stroke-width="1" fill="none"></path></g></g><g stroke-linecap="round" transform="translate(1593.9999999999995 469.0714721679687) rotate(0 192.4999999999999 95.50000000000003)"><path d="M-1.08 -0.37 C79.07 2.17, 157.12 2.03, 385.22 -0.82 M0.54 -0.52 C107.08 1.21, 213.88 2.15, 384.8 -0.4 M383.12 1.86 C382.17 65.32, 383.36 128.92, 383.18 192.48 M384.35 0.69 C386.65 42.71, 385.23 85.84, 385 191.22 M385.13 191.08 C283.46 193.21, 179.51 193.26, 0.27 190.57 M384.75 191.02 C234.47 190.77, 85.26 191.39, 0.26 190.72 M-1.73 190.22 C0.16 144.97, 1.19 98.18, 1.02 -1.91 M0.41 191.04 C-1.32 144.59, -0.42 100.41, 0.53 -0.91" stroke="#000000" stroke-width="1" fill="none"></path></g><g transform="translate(1598.9999999999995 495.5714721679687) rotate(0 187.4999999999999 69.00000000000003)"><text x="187.5" y="17" font-family="Virgil, Segoe UI Emoji" font-size="20px" fill="#000000" text-anchor="middle" style="white-space: pre;" direction="ltr">CStudent</text><text x="187.5" y="40" font-family="Virgil, Segoe UI Emoji" font-size="20px" fill="#000000" text-anchor="middle" style="white-space: pre;" direction="ltr"></text><text x="187.5" y="63" font-family="Virgil, Segoe UI Emoji" font-size="20px" fill="#000000" text-anchor="middle" style="white-space: pre;" direction="ltr">- userInterfaceRef</text><text x="187.5" y="86" font-family="Virgil, Segoe UI Emoji" font-size="20px" fill="#000000" text-anchor="middle" style="white-space: pre;" direction="ltr"></text><text x="187.5" y="109" font-family="Virgil, Segoe UI Emoji" font-size="20px" fill="#000000" text-anchor="middle" style="white-space: pre;" direction="ltr">+ virtual workOnCommand ( command )</text><text x="187.5" y="132" font-family="Virgil, Segoe UI Emoji" font-size="20px" fill="#000000" text-anchor="middle" style="white-space: pre;" direction="ltr">+ virtual update ( )</text></g><g stroke-linecap="round" transform="translate(1119.2499999999995 471.1488385881696) rotate(0 198 93.5)"><path d="M0.79 -0.75 C88.3 -0.58, 176.77 -0.23, 394.9 -0.79 M0.24 -0.44 C141.03 1.81, 283.27 1.23, 396.42 0.53 M395.45 1.92 C395.81 42.05, 397.1 78.78, 396.77 188.28 M396.66 -0.45 C397.36 70.36, 397.36 140.89, 396.5 187.32 M395.35 188.03 C314.41 189.01, 230.82 188.65, 0.43 186.63 M395.51 187.5 C248.83 185.01, 102.27 185.25, -0.11 186.59 M-0.12 186.3 C1.95 139.26, -0.8 92.42, -1.42 0.96 M-0.94 187.16 C-0.25 132.4, 0.13 79.75, -0.3 0.91" stroke="#000000" stroke-width="1" fill="none"></path></g><g transform="translate(1124.2499999999995 518.6488385881696) rotate(0 193 46)"><text x="193" y="17" font-family="Virgil, Segoe UI Emoji" font-size="20px" fill="#000000" text-anchor="middle" style="white-space: pre;" direction="ltr">CSopervisor</text><text x="193" y="40" font-family="Virgil, Segoe UI Emoji" font-size="20px" fill="#000000" text-anchor="middle" style="white-space: pre;" direction="ltr"></text><text x="193" y="63" font-family="Virgil, Segoe UI Emoji" font-size="20px" fill="#000000" text-anchor="middle" style="white-space: pre;" direction="ltr">+ virtual workOnCommand ( command )</text><text x="193" y="86" font-family="Virgil, Segoe UI Emoji" font-size="20px" fill="#000000" text-anchor="middle" style="white-space: pre;" direction="ltr">+ virtual update ( )</text></g><g stroke-linecap="round" transform="translate(1314.8333914620534 32.40477643694197) rotate(0 244 110)"><path d="M245.87 -1.38 C327.59 37.11, 411.26 77.8, 487.83 110.05 M245.73 0.19 C320.24 36.48, 396.36 71.03, 487.51 111.65 M488.95 112.32 C433.09 135.19, 380.02 157.65, 243.78 220.8 M487.33 111.5 C431 137.94, 373.02 163.83, 244.81 220.36 M246.3 221.47 C152.34 179.89, 59.94 138.94, 1.15 111.37 M245.3 219.22 C179.3 188.37, 112.01 158.8, -0.61 110.6 M1.02 110.58 C76.53 76.15, 156.12 41.78, 244.82 -0.76 M0.07 110.57 C56.73 86.73, 111.53 60.94, 245.12 0.11" stroke="#000000" stroke-width="1" fill="none"></path></g><g transform="translate(1319.8333914620534 73.40477643694197) rotate(0 239 69)"><text x="239" y="17" font-family="Virgil, Segoe UI Emoji" font-size="20px" fill="#000000" text-anchor="middle" style="white-space: pre;" direction="ltr">IUser</text><text x="239" y="40" font-family="Virgil, Segoe UI Emoji" font-size="20px" fill="#000000" text-anchor="middle" style="white-space: pre;" direction="ltr"></text><text x="239" y="63" font-family="Virgil, Segoe UI Emoji" font-size="20px" fill="#000000" text-anchor="middle" style="white-space: pre;" direction="ltr">+ setRemoteControl ( remote )</text><text x="239" y="86" font-family="Virgil, Segoe UI Emoji" font-size="20px" fill="#000000" text-anchor="middle" style="white-space: pre;" direction="ltr">+ virtual workOnCommand ( command )</text><text x="239" y="109" font-family="Virgil, Segoe UI Emoji" font-size="20px" fill="#000000" text-anchor="middle" style="white-space: pre;" direction="ltr">+ virtual update ( )</text><text x="239" y="132" font-family="Virgil, Segoe UI Emoji" font-size="20px" fill="#000000" text-anchor="middle" style="white-space: pre;" direction="ltr"></text></g><g stroke-linecap="round"><g transform="translate(1329.2529590367553 456.71595268212934) rotate(0 53.53274834854119 -124.83831942005044)"><path d="M0.28 0.92 C18.26 -40.68, 90.13 -207.08, 108.1 -248.76 M-1.03 0.35 C16.86 -41.68, 89.51 -209.24, 107.64 -250.59" stroke="#000000" stroke-width="1" fill="none"></path></g><g transform="translate(1329.2529590367553 456.71595268212934) rotate(0 53.53274834854119 -124.83831942005044)"><path d="M107.32 -219.09 C107.09 -228.63, 107.01 -239.48, 106.52 -250.11 M105.32 -220.39 C107.29 -230.04, 106.7 -240.73, 106.82 -250.7" stroke="#000000" stroke-width="1" fill="none"></path></g><g transform="translate(1329.2529590367553 456.71595268212934) rotate(0 53.53274834854119 -124.83831942005044)"><path d="M88.51 -227.28 C94.3 -234.27, 100.18 -242.52, 106.52 -250.11 M86.51 -228.58 C94.73 -235.68, 100.4 -243.63, 106.82 -250.7" stroke="#000000" stroke-width="1" fill="none"></path></g></g><g stroke-linecap="round"><g transform="translate(1793.941717560629 445.99764666461306) rotate(0 -54.38023947046668 -115.57843102765497)"><path d="M1.03 0.71 C-16.98 -37.99, -90.25 -193.11, -108.62 -231.87 M0.11 0.04 C-18.04 -38.5, -91.97 -191.97, -109.79 -230.41" stroke="#000000" stroke-width="1" fill="none"></path></g><g transform="translate(1793.941717560629 445.99764666461306) rotate(0 -54.38023947046668 -115.57843102765497)"><path d="M-87.26 -210.03 C-94.15 -216.12, -99.49 -218.09, -111.5 -230.75 M-88.94 -208.93 C-96.74 -216.44, -104.55 -226.07, -109.36 -229.9" stroke="#000000" stroke-width="1" fill="none"></path></g><g transform="translate(1793.941717560629 445.99764666461306) rotate(0 -54.38023947046668 -115.57843102765497)"><path d="M-105.81 -201.24 C-108.03 -209.71, -108.69 -213.9, -111.5 -230.75 M-107.49 -200.14 C-108.41 -210.73, -109.37 -223.6, -109.36 -229.9" stroke="#000000" stroke-width="1" fill="none"></path></g></g><g stroke-linecap="round" transform="translate(11.971534629920882 992.2795694194316) rotate(0 131.50000000000003 68.49999999999994)"><path d="M-1.08 1.22 C104 -1.09, 208.02 -1.35, 262.58 1.26 M0.34 -0.79 C85 -1.62, 169.07 -1.23, 263.12 -0.76 M264.04 -1.17 C261.87 31.89, 261.33 61.82, 262.83 136.41 M262.69 0.3 C264.32 39.72, 263.4 79.49, 262.74 136.84 M262.22 136 C180.6 136.82, 95.77 137.98, -1.06 135.49 M262.58 137.16 C159.57 136.91, 55.44 136.77, 0.14 136.46 M0.41 137.86 C0.57 99.19, -0.44 64.09, 0.66 0.82 M0.33 136.01 C-0.65 109.62, -1.33 81.44, -0.93 0.25" stroke="#000000" stroke-width="1" fill="none"></path></g><g transform="translate(16.971534629920882 1002.7795694194316) rotate(0 126.50000000000003 57.49999999999994)"><text x="126.5" y="17" font-family="Virgil, Segoe UI Emoji" font-size="20px" fill="#000000" text-anchor="middle" style="white-space: pre;" direction="ltr">CDrone</text><text x="126.5" y="40" font-family="Virgil, Segoe UI Emoji" font-size="20px" fill="#000000" text-anchor="middle" style="white-space: pre;" direction="ltr"></text><text x="126.5" y="63" font-family="Virgil, Segoe UI Emoji" font-size="20px" fill="#000000" text-anchor="middle" style="white-space: pre;" direction="ltr">+ getRemoteControl ( )</text><text x="126.5" y="86" font-family="Virgil, Segoe UI Emoji" font-size="20px" fill="#000000" text-anchor="middle" style="white-space: pre;" direction="ltr">+ pickItem ( item )</text><text x="126.5" y="109" font-family="Virgil, Segoe UI Emoji" font-size="20px" fill="#000000" text-anchor="middle" style="white-space: pre;" direction="ltr">+ dropItem ( )</text></g><g stroke-linecap="round"><g transform="translate(292.92898703468165 1066.1535903406125) rotate(0 126.87666551041417 -0.598341722781015)"><path d="M0.55 0.61 C43.05 0.59, 212.04 0.4, 254.38 0.12 M-0.62 -0.12 C41.78 -0.54, 211.03 -1.79, 253.45 -1.8" stroke="#000000" stroke-width="1" fill="none"></path></g><g transform="translate(292.92898703468165 1066.1535903406125) rotate(0 126.87666551041417 -0.598341722781015)"><path d="M226.32 8.65 C232.9 6.24, 237.87 2.68, 255.04 -1.69 M224.79 8.9 C234.6 5.35, 243.71 0.75, 253.91 -0.9" stroke="#000000" stroke-width="1" fill="none"></path></g><g transform="translate(292.92898703468165 1066.1535903406125) rotate(0 126.87666551041417 -0.598341722781015)"><path d="M226.23 -11.87 C232.87 -9.2, 237.87 -7.68, 255.04 -1.69 M224.7 -11.62 C234.63 -8.6, 243.77 -6.61, 253.91 -0.9" stroke="#000000" stroke-width="1" fill="none"></path></g></g><g stroke-linecap="round" transform="translate(10 1222.909047312551) rotate(0 131.5 105)"><path d="M-0.83 -0.71 C91.63 1.4, 180.68 1.36, 264.53 -0.12 M0.57 0.24 C60.77 -1.79, 123.17 -0.47, 263.4 0.52 M262.31 -1.3 C263.75 78.06, 263.93 157.78, 264.7 209.66 M263.56 -0.15 C263.2 69.89, 262.55 140.08, 263.29 210 M261.9 209.78 C174.7 208.13, 89.01 207.29, -0.02 211.44 M262.74 209.34 C180.99 209.77, 98.38 210.1, -0.36 209.22 M1.45 209.41 C-2.86 141.68, -0.08 74.45, 0.9 -1.13 M0.82 210.01 C-0.23 138, -0.15 65.88, 0.25 0.51" stroke="#000000" stroke-width="1" fill="none"></path></g><g transform="translate(15 1247.409047312551) rotate(0 126.5 80.5)"><text x="126.5" y="17" font-family="Virgil, Segoe UI Emoji" font-size="20px" fill="#000000" text-anchor="middle" style="white-space: pre;" direction="ltr">CRemoteControl</text><text x="126.5" y="40" font-family="Virgil, Segoe UI Emoji" font-size="20px" fill="#000000" text-anchor="middle" style="white-space: pre;" direction="ltr"></text><text x="126.5" y="63" font-family="Virgil, Segoe UI Emoji" font-size="20px" fill="#000000" text-anchor="middle" style="white-space: pre;" direction="ltr">- droneRef</text><text x="126.5" y="86" font-family="Virgil, Segoe UI Emoji" font-size="20px" fill="#000000" text-anchor="middle" style="white-space: pre;" direction="ltr">+ rotateLeft ( )</text><text x="126.5" y="109" font-family="Virgil, Segoe UI Emoji" font-size="20px" fill="#000000" text-anchor="middle" style="white-space: pre;" direction="ltr">+ rotateRight ( )</text><text x="126.5" y="132" font-family="Virgil, Segoe UI Emoji" font-size="20px" fill="#000000" text-anchor="middle" style="white-space: pre;" direction="ltr">+ goForward ( )</text><text x="126.5" y="155" font-family="Virgil, Segoe UI Emoji" font-size="20px" fill="#000000" text-anchor="middle" style="white-space: pre;" direction="ltr">+ goBackward ( )</text></g><g stroke-linecap="round"><g transform="translate(140.08731611948167 1132.221819043459) rotate(0 0.9228519449699206 44.469227564836274)"><path d="M-0.48 0.18 C-0.53 15.03, -0.29 73.53, -0.03 88.18 M1.47 -0.77 C1.79 14.36, 2.46 74.69, 2.31 89.71" stroke="#000000" stroke-width="1" fill="none"></path></g></g></svg>